<mxfile host="app.diagrams.net" modified="2021-03-22T12:12:48.055Z" agent="5.0 (X11; Linux x86_64) AppleWebKit/537.36 (KHTML, like Gecko) Chrome/88.0.4324.150 Safari/537.36" etag="HqDxaDxcUscJfMR4O_Be" version="14.4.9" type="github">
  <diagram name="Page-1" id="e7e014a7-5840-1c2e-5031-d8a46d1fe8dd">
    <mxGraphModel dx="1240" dy="679" grid="1" gridSize="10" guides="1" tooltips="1" connect="1" arrows="1" fold="1" page="1" pageScale="1" pageWidth="1169" pageHeight="826" background="#ffffff" math="0" shadow="0">
      <root>
        <mxCell id="0" />
        <mxCell id="1" parent="0" />
        <mxCell id="Q4-nXhtBB_RPtPYhB7_e-42" style="edgeStyle=orthogonalEdgeStyle;rounded=0;orthogonalLoop=1;jettySize=auto;html=1;" edge="1" parent="1" source="Q4-nXhtBB_RPtPYhB7_e-41">
          <mxGeometry relative="1" as="geometry">
            <mxPoint x="420" y="240" as="targetPoint" />
          </mxGeometry>
        </mxCell>
        <mxCell id="Q4-nXhtBB_RPtPYhB7_e-60" style="edgeStyle=orthogonalEdgeStyle;rounded=0;orthogonalLoop=1;jettySize=auto;html=1;entryX=0.5;entryY=0;entryDx=0;entryDy=0;" edge="1" parent="1" source="Q4-nXhtBB_RPtPYhB7_e-41" target="Q4-nXhtBB_RPtPYhB7_e-59">
          <mxGeometry relative="1" as="geometry" />
        </mxCell>
        <mxCell id="Q4-nXhtBB_RPtPYhB7_e-81" style="edgeStyle=orthogonalEdgeStyle;rounded=0;orthogonalLoop=1;jettySize=auto;html=1;entryX=0.5;entryY=0;entryDx=0;entryDy=0;" edge="1" parent="1" source="Q4-nXhtBB_RPtPYhB7_e-41" target="Q4-nXhtBB_RPtPYhB7_e-54">
          <mxGeometry relative="1" as="geometry" />
        </mxCell>
        <mxCell id="Q4-nXhtBB_RPtPYhB7_e-41" value="&lt;font style=&quot;font-size: 24px&quot;&gt;User&lt;/font&gt;" style="rounded=0;whiteSpace=wrap;html=1;" vertex="1" parent="1">
          <mxGeometry x="360" y="80" width="120" height="60" as="geometry" />
        </mxCell>
        <mxCell id="Q4-nXhtBB_RPtPYhB7_e-44" style="edgeStyle=orthogonalEdgeStyle;rounded=0;orthogonalLoop=1;jettySize=auto;html=1;exitX=0.5;exitY=1;exitDx=0;exitDy=0;" edge="1" parent="1" source="Q4-nXhtBB_RPtPYhB7_e-43" target="Q4-nXhtBB_RPtPYhB7_e-45">
          <mxGeometry relative="1" as="geometry">
            <mxPoint x="420" y="410" as="targetPoint" />
          </mxGeometry>
        </mxCell>
        <mxCell id="Q4-nXhtBB_RPtPYhB7_e-57" style="edgeStyle=orthogonalEdgeStyle;rounded=0;orthogonalLoop=1;jettySize=auto;html=1;" edge="1" parent="1" source="Q4-nXhtBB_RPtPYhB7_e-43" target="Q4-nXhtBB_RPtPYhB7_e-54">
          <mxGeometry relative="1" as="geometry" />
        </mxCell>
        <mxCell id="Q4-nXhtBB_RPtPYhB7_e-43" value="&lt;span style=&quot;font-size: 24px&quot;&gt;Selection menu&lt;/span&gt;" style="rounded=0;whiteSpace=wrap;html=1;" vertex="1" parent="1">
          <mxGeometry x="360" y="240" width="120" height="60" as="geometry" />
        </mxCell>
        <mxCell id="Q4-nXhtBB_RPtPYhB7_e-61" style="edgeStyle=orthogonalEdgeStyle;rounded=0;orthogonalLoop=1;jettySize=auto;html=1;entryX=1;entryY=0.5;entryDx=0;entryDy=0;" edge="1" parent="1" source="Q4-nXhtBB_RPtPYhB7_e-45" target="Q4-nXhtBB_RPtPYhB7_e-59">
          <mxGeometry relative="1" as="geometry" />
        </mxCell>
        <mxCell id="Q4-nXhtBB_RPtPYhB7_e-45" value="&lt;span style=&quot;font-size: 24px&quot;&gt;Game Interface&lt;/span&gt;" style="rounded=0;whiteSpace=wrap;html=1;" vertex="1" parent="1">
          <mxGeometry x="360" y="380" width="120" height="130" as="geometry" />
        </mxCell>
        <mxCell id="Q4-nXhtBB_RPtPYhB7_e-46" value="Singleplayer" style="text;html=1;strokeColor=none;fillColor=none;align=center;verticalAlign=middle;whiteSpace=wrap;rounded=0;" vertex="1" parent="1">
          <mxGeometry x="320" y="330" width="80" height="30" as="geometry" />
        </mxCell>
        <mxCell id="Q4-nXhtBB_RPtPYhB7_e-47" value="Multiplayer" style="text;html=1;strokeColor=none;fillColor=none;align=center;verticalAlign=middle;whiteSpace=wrap;rounded=0;" vertex="1" parent="1">
          <mxGeometry x="490" y="200" width="80" height="30" as="geometry" />
        </mxCell>
        <mxCell id="Q4-nXhtBB_RPtPYhB7_e-58" style="edgeStyle=orthogonalEdgeStyle;rounded=0;orthogonalLoop=1;jettySize=auto;html=1;entryX=1.008;entryY=0.446;entryDx=0;entryDy=0;entryPerimeter=0;" edge="1" parent="1" source="Q4-nXhtBB_RPtPYhB7_e-54" target="Q4-nXhtBB_RPtPYhB7_e-45">
          <mxGeometry relative="1" as="geometry">
            <mxPoint x="635" y="440" as="targetPoint" />
            <Array as="points">
              <mxPoint x="680" y="438" />
            </Array>
          </mxGeometry>
        </mxCell>
        <mxCell id="Q4-nXhtBB_RPtPYhB7_e-54" value="&lt;span style=&quot;font-size: 24px&quot;&gt;TCP Connection&lt;/span&gt;" style="rounded=0;whiteSpace=wrap;html=1;" vertex="1" parent="1">
          <mxGeometry x="580" y="240" width="180" height="60" as="geometry" />
        </mxCell>
        <mxCell id="Q4-nXhtBB_RPtPYhB7_e-71" style="edgeStyle=orthogonalEdgeStyle;rounded=0;orthogonalLoop=1;jettySize=auto;html=1;entryX=0;entryY=0.5;entryDx=0;entryDy=0;" edge="1" parent="1" source="Q4-nXhtBB_RPtPYhB7_e-59" target="Q4-nXhtBB_RPtPYhB7_e-62">
          <mxGeometry relative="1" as="geometry">
            <mxPoint x="310" y="640" as="targetPoint" />
            <Array as="points">
              <mxPoint x="250" y="640" />
            </Array>
          </mxGeometry>
        </mxCell>
        <mxCell id="Q4-nXhtBB_RPtPYhB7_e-59" value="&lt;font size=&quot;3&quot;&gt;UserActions&lt;/font&gt;" style="rounded=0;whiteSpace=wrap;html=1;" vertex="1" parent="1">
          <mxGeometry x="190" y="560" width="120" height="60" as="geometry" />
        </mxCell>
        <mxCell id="Q4-nXhtBB_RPtPYhB7_e-75" style="edgeStyle=orthogonalEdgeStyle;rounded=0;orthogonalLoop=1;jettySize=auto;html=1;exitX=1;exitY=0.5;exitDx=0;exitDy=0;entryX=0;entryY=0.5;entryDx=0;entryDy=0;" edge="1" parent="1" source="Q4-nXhtBB_RPtPYhB7_e-62" target="Q4-nXhtBB_RPtPYhB7_e-74">
          <mxGeometry relative="1" as="geometry">
            <Array as="points">
              <mxPoint x="530" y="640" />
              <mxPoint x="530" y="550" />
            </Array>
          </mxGeometry>
        </mxCell>
        <mxCell id="Q4-nXhtBB_RPtPYhB7_e-62" value="&lt;font size=&quot;3&quot;&gt;Dispatcher&lt;/font&gt;" style="rounded=0;whiteSpace=wrap;html=1;" vertex="1" parent="1">
          <mxGeometry x="400" y="610" width="120" height="60" as="geometry" />
        </mxCell>
        <mxCell id="Q4-nXhtBB_RPtPYhB7_e-77" style="edgeStyle=orthogonalEdgeStyle;rounded=0;orthogonalLoop=1;jettySize=auto;html=1;" edge="1" parent="1" source="Q4-nXhtBB_RPtPYhB7_e-74" target="Q4-nXhtBB_RPtPYhB7_e-45">
          <mxGeometry relative="1" as="geometry">
            <Array as="points">
              <mxPoint x="610" y="480" />
            </Array>
          </mxGeometry>
        </mxCell>
        <mxCell id="Q4-nXhtBB_RPtPYhB7_e-79" style="edgeStyle=orthogonalEdgeStyle;rounded=0;orthogonalLoop=1;jettySize=auto;html=1;entryX=0.5;entryY=1;entryDx=0;entryDy=0;" edge="1" parent="1" source="Q4-nXhtBB_RPtPYhB7_e-74" target="Q4-nXhtBB_RPtPYhB7_e-78">
          <mxGeometry relative="1" as="geometry" />
        </mxCell>
        <mxCell id="Q4-nXhtBB_RPtPYhB7_e-74" value="&lt;font style=&quot;font-size: 24px&quot;&gt;Events&lt;/font&gt;" style="rounded=0;whiteSpace=wrap;html=1;" vertex="1" parent="1">
          <mxGeometry x="550" y="520" width="120" height="60" as="geometry" />
        </mxCell>
        <mxCell id="Q4-nXhtBB_RPtPYhB7_e-80" style="edgeStyle=orthogonalEdgeStyle;rounded=0;orthogonalLoop=1;jettySize=auto;html=1;exitX=0.5;exitY=0;exitDx=0;exitDy=0;entryX=1;entryY=0.5;entryDx=0;entryDy=0;" edge="1" parent="1" source="Q4-nXhtBB_RPtPYhB7_e-78" target="Q4-nXhtBB_RPtPYhB7_e-54">
          <mxGeometry relative="1" as="geometry" />
        </mxCell>
        <mxCell id="Q4-nXhtBB_RPtPYhB7_e-78" value="&lt;font style=&quot;font-size: 24px&quot;&gt;Parser&lt;/font&gt;" style="rounded=0;whiteSpace=wrap;html=1;" vertex="1" parent="1">
          <mxGeometry x="740" y="410" width="120" height="60" as="geometry" />
        </mxCell>
      </root>
    </mxGraphModel>
  </diagram>
</mxfile>
